<svg id="alls" xmlns="http://www.w3.org/2000/svg" viewBox="0 0 377.4834 368.9806">
  <defs>
    <style>
      .cls-1 {
        fill: #e53525;
      }

      .cls-2 {
        fill: #f173a9;
      }

      .cls-3 {
        fill: #fee200;
      }

      .cls-4 {
        fill: #33c6f4;
      }

      .cls-5 {
        fill: #5c3d98;
      }
    </style>
  </defs>
  <g id="Layer_1" data-name="Layer 1">
    <path class="cls-1" d="M382.685,129.4912c-.3944,25.5931-12.4253,58.73-30.4716,90.1487-25.9354,45.2653-61.0419,83.1775-101.0791,116.9832-16.863,14.229-34.7121,27.312-51.9695,41.159-3.7473,3.0559-6.3112,2.7694-10.1572,0C141.4758,343.1169,97.4941,305.0138,61.7959,258.507c-23.3715-30.5589-42.0095-63.41-51.2792-100.6533-7.0015-28.3625-7.8891-56.7249,2.3668-84.5144C22.7449,46.5048,40.4953,26.4505,68.6,16.3279c20.8075-7.4487,41.8123-6.8758,62.817.2865,17.06,5.8253,31.4578,15.47,44.672,27.2165,4.0432,3.6288,8.678,6.6847,13.017,9.9316a7.7788,7.7788,0,0,0,9.6642.0955,163.7027,163.7027,0,0,0,13.9045-10.5046c22.0895-19.6723,47.236-32.8508,78.0035-32.1823,34.4162.7639,59.76,17.0938,76.82,45.4563C378.9377,75.7267,382.9808,96.7359,382.685,129.4912Z" transform="translate(-5.2167 -10.9873)"/>
  </g>
  <g id="Layer_1-2" data-name="Layer 1">
    <path class="cls-2" d="M348.2191,141.5419c-.3224,20.9191-10.1561,48.0048-24.9068,73.6854-21.199,36.9989-49.8942,67.9873-82.62,95.6194-13.7834,11.63-28.3728,22.3242-42.4786,33.6424-3.063,2.4978-5.1587,2.2636-8.3023,0-38.8514-28.3345-74.801-59.4791-103.98-97.4927-19.1033-24.9781-34.3375-51.83-41.9144-82.2717-5.7229-23.1828-6.4483-46.3657,1.9345-69.08,8.06-21.9339,22.5693-38.3258,45.5416-46.6,17.0076-6.0885,34.1764-5.62,51.3452.2341,13.9446,4.7615,25.7128,12.6452,36.5138,22.2462,3.3048,2.9661,7.0932,5.4639,10.64,8.1179a6.3582,6.3582,0,0,0,7.8993.078,133.8321,133.8321,0,0,0,11.3653-8.5862c18.0554-16.08,38.61-26.8515,63.7582-26.3051,28.1309.6244,48.8463,13.9721,62.7909,37.1549C345.1562,97.596,348.461,114.7684,348.2191,141.5419Z" transform="translate(-5.2167 -10.9873)"/>
  </g>
  <g id="Layer_1-3" data-name="Layer 1">
    <path class="cls-3" d="M321.35,155.222c-.2663,17.2754-8.3872,39.6432-20.5685,60.8508-17.5065,30.5543-41.2036,56.1451-68.2289,78.9641-11.3825,9.6047-23.4307,18.4358-35.08,27.7825-2.5294,2.0628-4.26,1.8694-6.8561,0-32.0842-23.3991-61.7721-49.1189-85.8685-80.5112-15.7758-20.6274-28.3565-42.8018-34.6136-67.9414-4.7261-19.1448-5.3252-38.29,1.5975-57.0476,6.6565-18.1134,18.6381-31.65,37.6091-38.4829,14.0451-5.028,28.2234-4.6412,42.4017.1933,11.5157,3.9321,21.2341,10.4426,30.1538,18.3713,2.7292,2.45,5.8577,4.5122,8.7865,6.7039a5.2509,5.2509,0,0,0,6.5234.0645,110.502,110.502,0,0,0,9.3856-7.0907C221.5026,83.8,238.4766,74.9042,259.2448,75.3554c23.2311.5157,40.3382,11.5384,51.8539,30.6832C318.82,118.9307,321.5493,133.112,321.35,155.222Z" transform="translate(-5.2167 -10.9873)"/>
  </g>
  <g id="Layer_1-4" data-name="Layer 1">
    <path class="cls-4" d="M302.6267,161.7683c-.2271,14.7364-7.1545,33.8168-17.5455,51.9074-14.9335,26.0637-35.1478,47.8934-58.2011,67.3587-9.71,8.193-19.9871,15.7261-29.9239,23.6992-2.1577,1.76-3.634,1.5946-5.8485,0-27.3687-19.96-52.6933-41.9-73.2482-68.6783-13.4572-17.5958-24.1889-36.5112-29.5264-57.956-4.0315-16.331-4.5425-32.662,1.3628-48.6632,5.6781-15.4512,15.8988-26.9984,32.0815-32.827,11.9809-4.289,24.0754-3.959,36.17.165,9.8232,3.3542,18.1133,8.9078,25.722,15.6712,2.3281,2.09,4.9968,3.849,7.4952,5.7186a4.4789,4.4789,0,0,0,5.5646.055,94.2782,94.2782,0,0,0,8.0062-6.0486C217.4544,100.8431,231.9337,93.2549,249.65,93.64c19.8168.44,34.41,9.8426,44.2328,26.1737C300.469,130.8108,302.797,142.9079,302.6267,161.7683Z" transform="translate(-5.2167 -10.9873)"/>
  </g>
  <g id="Layer_1-5" data-name="Layer 1">
    <path class="cls-5" d="M289.3362,166.4152c-.1994,12.9341-6.28,29.6809-15.4,45.5589-13.1071,22.876-30.849,42.0359-51.0829,59.1205-8.5221,7.1909-17.5426,13.8028-26.264,20.8007-1.8938,1.5444-3.19,1.4-5.1332,0-24.0214-17.5189-46.2487-36.7753-64.29-60.2787-11.8114-15.4437-21.2306-32.0457-25.9152-50.8677-3.5385-14.3337-3.987-28.6674,1.1961-42.7115,4.9836-13.5615,13.9543-23.6964,28.1578-28.8122,10.5156-3.7644,21.1309-3.4748,31.7462.1448,8.6218,2.944,15.898,7.8184,22.5761,13.7546,2.0433,1.8339,4.3857,3.3783,6.5785,5.0192a3.9312,3.9312,0,0,0,4.884.0482,82.73,82.73,0,0,0,7.027-5.3087c11.1635-9.9419,23.872-16.602,39.4211-16.2642,17.3931.3861,30.2012,8.6388,38.8229,22.9725C287.4423,139.2439,289.4857,149.8615,289.3362,166.4152Z" transform="translate(-5.2167 -10.9873)"/>
  </g>
</svg>
