<?xml version="1.0" encoding="utf-8"?>
<!-- Generator: Adobe Illustrator 25.4.1, SVG Export Plug-In . SVG Version: 6.00 Build 0)  -->
<svg version="1.1" id="alls" xmlns="http://www.w3.org/2000/svg" xmlns:xlink="http://www.w3.org/1999/xlink" x="0px" y="0px"
	 viewBox="0 0 382.7 386.5" style="enable-background:new 0 0 382.7 386.5;" xml:space="preserve">
<style type="text/css">
	.st0{fill:#FF2C2C;}
	.st1{fill:#F99595;}
	.st2{fill:#FF9CF1;}
	.st3{fill:#FFA1BE;}
	.st4{fill:#F9FFA4;}
	.st5{fill:#DAA6FF;}
	.st6{fill:#AB4AFF;}
	.st7{fill:#FF4DF2;}
	.st8{fill:#F9AFF7;}
	.st9{fill:#7C0E7C;}
	.st10{fill:#770E1D;}
	.st11{fill:#7A4953;}
	.st12{fill:#FF9100;}
	.st13{fill:#F4D2A8;}
	.st14{fill:#FF004F;}
	.st15{fill:#A80F46;}
	.st16{fill:#5E1D38;}
	.st17{fill:#295B1D;}
	.st18{fill:#7CD363;}
	.st19{fill:#C365D1;}
	.st20{fill:#700789;}
	.st21{fill:#E7F200;}
	.st22{fill:#00EFA5;}
	.st23{fill:#ED0000;}
	.st24{fill:#00DBFF;}
	.st25{fill:#15707A;}
	.st26{fill:#0B4447;}
	.st27{fill:#152C38;}
	.st28{fill:#C6CCCC;}
	.st29{fill:#686B6B;}
	.st30{fill:#081944;}
	.st31{fill:#8760A5;}
	.st32{fill:#4A3160;}
	.st33{fill:#F90B0B;}
</style>
<g id="Layer_1">
	<path d="M382.7,124.1c-0.4,26.8-12.6,61.5-30.9,94.4c-26.3,47.4-61.9,87.1-102.5,122.5c-17.1,14.9-35.2,28.6-52.7,43.1
		c-3.8,3.2-6.4,2.9-10.3,0c-48.2-36.3-92.8-76.2-129-124.9c-23.7-32-42.6-66.4-52-105.4c-7.1-29.7-8-59.4,2.4-88.5
		c10-28.1,28-49.1,56.5-59.7c21.1-7.8,42.4-7.2,63.7,0.3c17.3,6.1,31.9,16.2,45.3,28.5c4.1,3.8,8.8,7,13.2,10.4
		c2.8,2.4,7,2.4,9.8,0.1c4.9-3.4,9.6-7.1,14.1-11c22.4-20.6,47.9-34.4,79.1-33.7C324.3,1,350,18.1,367.3,47.8
		C378.9,67.8,383,89.8,382.7,124.1z M41.7,134.5c1.5,10.4,2.3,21,4.7,31.2c5.5,23.3,14.8,45.2,28.8,64.7
		c10.5,14.6,20.6,29.5,32.3,43c23.5,27.1,50.6,50.4,79.4,71.8c3.2,2.4,5.6,2.7,8.7,0.1c19.8-16.9,40.5-32.8,59.4-50.8
		c25.7-24.5,48-52,64.3-83.9c13.2-25.8,21.8-52.8,20.6-82c-1-25.3-9-47.9-28.7-64.8c-19.2-16.5-41.7-20.6-65.9-13.7
		c-15.7,4.5-28.9,13.5-40.8,24.6c-11.8,11.1-14.2,11.1-26.4,0.1c-9-8-18.3-15.3-29.4-20.4c-29.6-13.6-65.1-8.3-86.9,19.2
		C47.7,91.5,42.4,112,41.7,134.5z"/>
</g>
<g id="Layer_2">
	<path class="st0" d="M347.8,140.5c-0.3,21.9-10.3,50.3-25.3,77.2c-21.5,38.7-50.6,71.2-83.8,100.1c-14,12.2-28.8,23.4-43.1,35.2
		c-3.1,2.6-5.2,2.4-8.4,0c-39.4-29.7-75.9-62.3-105.4-102.1c-19.4-26.2-34.8-54.3-42.5-86.1c-5.8-24.3-6.5-48.6,2-72.3
		c8.2-23,22.9-40.1,46.2-48.8c17.2-6.4,34.7-5.9,52.1,0.2c14.1,5,26.1,13.2,37,23.3c3.4,3.1,7.2,5.7,10.8,8.5c2.3,2,5.7,2,8,0.1
		c4-2.8,7.8-5.8,11.5-9C225.2,50,246,38.7,271.5,39.3c28.5,0.7,49.5,14.6,63.7,38.9C344.7,94.5,348,112.5,347.8,140.5z M69.1,149
		c1.2,8.5,1.9,17.2,3.8,25.5c4.5,19,12.1,36.9,23.5,52.9c8.6,11.9,16.8,24.1,26.4,35.1c19.2,22.2,41.4,41.2,64.9,58.7
		c2.6,2,4.6,2.2,7.1,0.1c16.2-13.8,33.1-26.8,48.6-41.5c21-20,39.2-42.5,52.6-68.6c10.8-21.1,17.8-43.2,16.8-67
		c-0.8-20.7-7.4-39.2-23.5-53c-15.7-13.5-34.1-16.8-53.9-11.2c-12.8,3.7-23.6,11-33.3,20.1c-9.6,9.1-11.6,9.1-21.6,0.1
		c-7.4-6.5-15-12.5-24-16.7c-24.2-11.1-53.2-6.8-71,15.7C74,113.9,69.6,130.6,69.1,149z"/>
</g>
<g id="Layer_3">
	<path class="st1" d="M318.3,154.1c-0.3,17.9-8.4,41-20.6,62.9c-17.5,31.6-41.2,58-68.3,81.6c-11.4,9.9-23.4,19.1-35.1,28.7
		c-2.5,2.1-4.3,1.9-6.9,0c-32.1-24.2-61.8-50.8-85.9-83.2c-15.8-21.3-28.4-44.2-34.6-70.2c-4.7-19.8-5.3-39.6,1.6-59
		c6.7-18.7,18.7-32.7,37.6-39.8c14.1-5.2,28.2-4.8,42.4,0.2c11.5,4.1,21.3,10.8,30.2,19c2.7,2.5,5.9,4.7,8.8,6.9
		c1.9,1.6,4.7,1.6,6.5,0.1c3.3-2.3,6.4-4.7,9.4-7.3c14.9-13.7,31.9-22.9,52.7-22.4c23.2,0.5,40.4,11.9,51.9,31.7
		C315.8,116.6,318.5,131.3,318.3,154.1z M91.2,161c1,6.9,1.5,14,3.1,20.8c3.7,15.5,9.9,30.1,19.2,43.1c7,9.7,13.7,19.7,21.5,28.6
		c15.7,18.1,33.7,33.6,52.9,47.8c2.1,1.6,3.7,1.8,5.8,0.1c13.2-11.3,27-21.8,39.6-33.8c17.1-16.3,32-34.6,42.8-55.9
		c8.8-17.2,14.5-35.2,13.7-54.6c-0.7-16.9-6-31.9-19.1-43.2c-12.8-11-27.8-13.7-43.9-9.1c-10.5,3-19.3,9-27.2,16.4
		c-7.9,7.4-9.5,7.4-17.6,0.1c-6-5.3-12.2-10.2-19.6-13.6c-19.7-9.1-43.4-5.5-57.9,12.8C95.2,132.4,91.7,146,91.2,161z"/>
</g>
<g id="Layer_4">
	<path class="st2" d="M302.1,170.5c-0.2,15.7-7.4,36-18.1,55.3c-15.4,27.7-36.2,51-60,71.7c-10,8.7-20.6,16.7-30.8,25.2
		c-2.2,1.9-3.7,1.7-6,0c-28.2-21.2-54.3-44.6-75.5-73.1c-13.9-18.7-24.9-38.9-30.4-61.7c-4.2-17.4-4.7-34.8,1.4-51.8
		c5.9-16.4,16.4-28.7,33.1-34.9c12.4-4.6,24.8-4.2,37.3,0.2c10.1,3.6,18.7,9.5,26.5,16.7c2.4,2.2,5.2,4.1,7.7,6.1
		c1.6,1.4,4.1,1.4,5.7,0.1c2.9-2,5.6-4.2,8.3-6.4c13.1-12.1,28-20.1,46.3-19.7c20.4,0.5,35.5,10.5,45.6,27.9
		C299.9,137.5,302.3,150.4,302.1,170.5z M102.5,176.6c0.9,6.1,1.3,12.3,2.8,18.3c3.2,13.6,8.7,26.5,16.9,37.9
		c6.1,8.5,12.1,17.3,18.9,25.2c13.8,15.9,29.6,29.5,46.5,42c1.9,1.4,3.3,1.6,5.1,0.1c11.6-9.9,23.7-19.2,34.8-29.7
		c15-14.3,28.1-30.4,37.6-49.1c7.7-15.1,12.8-30.9,12.1-48c-0.6-14.8-5.3-28-16.8-37.9c-11.2-9.7-24.4-12.1-38.6-8
		c-9.2,2.6-16.9,7.9-23.9,14.4c-6.9,6.5-8.3,6.5-15.5,0.1c-5.3-4.7-10.7-9-17.2-11.9c-17.3-8-38.1-4.9-50.9,11.2
		C106,151.4,102.9,163.4,102.5,176.6z"/>
</g>
<g id="Layer_5">
	<path class="st3" d="M281.6,180.4c-0.2,12.7-6,29.2-14.7,44.8c-12.5,22.5-29.4,41.3-48.6,58.1c-8.1,7.1-16.7,13.6-25,20.4
		c-1.8,1.5-3,1.4-4.9,0c-22.9-17.2-44-36.1-61.2-59.2c-11.2-15.2-20.2-31.5-24.7-50c-3.4-14.1-3.8-28.2,1.1-42
		c4.7-13.3,13.3-23.3,26.8-28.3c10-3.7,20.1-3.4,30.2,0.1c8.2,2.9,15.1,7.7,21.5,13.5c1.9,1.8,4.2,3.3,6.3,4.9
		c1.3,1.1,3.3,1.1,4.6,0c2.3-1.6,4.6-3.4,6.7-5.2c10.6-9.8,22.7-16.3,37.5-16c16.6,0.4,28.7,8.5,37,22.6
		C279.8,153.7,281.8,164.1,281.6,180.4z M119.9,185.3c0.7,4.9,1.1,10,2.2,14.8c2.6,11.1,7,21.4,13.7,30.7c5,6.9,9.8,14,15.3,20.4
		c11.1,12.9,24,23.9,37.7,34.1c1.5,1.1,2.7,1.3,4.1,0c9.4-8,19.2-15.6,28.2-24.1c12.2-11.6,22.8-24.7,30.5-39.8
		c6.3-12.2,10.3-25,9.8-38.9c-0.5-12-4.3-22.7-13.6-30.7c-9.1-7.8-19.8-9.8-31.3-6.5c-7.4,2.1-13.7,6.4-19.4,11.7
		c-5.6,5.3-6.7,5.3-12.5,0c-4.3-3.8-8.7-7.3-13.9-9.7c-14-6.5-30.9-3.9-41.2,9.1C122.7,164.9,120.2,174.6,119.9,185.3z"/>
</g>
<g id="Layer_6">
	<path class="st4" d="M263.6,188.3c-0.2,10.3-4.9,23.7-11.9,36.4c-10.1,18.3-23.9,33.6-39.5,47.3c-6.6,5.7-13.6,11-20.3,16.6
		c-1.5,1.2-2.5,1.1-4,0c-18.6-14-35.8-29.4-49.8-48.2c-9.1-12.3-16.4-25.6-20.1-40.7c-2.7-11.5-3.1-22.9,0.9-34.1
		c3.9-10.8,10.8-18.9,21.8-23c8.1-3,16.4-2.8,24.6,0.1c6.7,2.4,12.3,6.2,17.5,11c1.6,1.5,3.4,2.7,5.1,4c1.1,0.9,2.7,0.9,3.8,0
		c1.9-1.3,3.7-2.7,5.4-4.2c8.6-7.9,18.5-13.3,30.5-13c13.5,0.3,23.4,6.9,30,18.4C262.2,166.6,263.8,175.1,263.6,188.3z M132.1,192.3
		c0.6,4,0.9,8.1,1.8,12c2.1,9,5.7,17.4,11.1,25c4.1,5.6,7.9,11.4,12.5,16.6c9.1,10.5,19.5,19.4,30.6,27.7c1.2,0.9,2.2,1,3.4,0
		c7.6-6.5,15.6-12.7,22.9-19.6c9.9-9.5,18.5-20.1,24.8-32.4c5.1-10,8.4-20.4,7.9-31.6c-0.4-9.8-3.5-18.5-11.1-25
		c-7.4-6.4-16.1-7.9-25.4-5.3c-6.1,1.7-11.1,5.2-15.7,9.5c-4.6,4.3-5.5,4.3-10.2,0c-3.5-3.1-7.1-5.9-11.3-7.9
		c-11.4-5.2-25.1-3.2-33.5,7.4C134.4,175.7,132.4,183.6,132.1,192.3z"/>
</g>
<g id="Layer_7">
	<path class="st5" d="M246.3,196c-0.1,7.9-3.7,18.2-9.1,27.9c-7.8,14-18.3,25.8-30.3,36.3c-5.1,4.4-10.4,8.5-15.6,12.8
		c-1.1,0.9-1.9,0.9-3,0c-14.3-10.7-27.5-22.6-38.2-37c-7-9.5-12.6-19.7-15.4-31.2c-2.1-8.8-2.4-17.6,0.7-26.2
		c3-8.3,8.3-14.5,16.7-17.7c6.2-2.3,12.5-2.1,18.9,0.1c5.1,1.8,9.4,4.8,13.4,8.4c1.2,1.1,2.6,2.1,3.9,3.1c0.8,0.7,2.1,0.7,2.9,0
		c1.5-1,2.8-2.1,4.2-3.3c6.6-6.1,14.2-10.2,23.4-10c10.3,0.2,17.9,5.3,23.1,14.1C245.2,179.3,246.4,185.8,246.3,196z M145.4,199
		c0.4,3.1,0.7,6.2,1.4,9.2c1.6,6.9,4.4,13.4,8.5,19.2c3.1,4.3,6.1,8.7,9.6,12.7c7,8,15,14.9,23.5,21.3c0.9,0.7,1.7,0.8,2.6,0
		c5.9-5,12-9.7,17.6-15c7.6-7.3,14.2-15.4,19-24.8c3.9-7.6,6.5-15.6,6.1-24.3c-0.3-7.5-2.7-14.2-8.5-19.2
		c-5.7-4.9-12.3-6.1-19.5-4.1c-4.6,1.3-8.6,4-12.1,7.3c-3.5,3.3-4.2,3.3-7.8,0c-2.7-2.4-5.4-4.5-8.7-6c-8.8-4-19.3-2.5-25.7,5.7
		C147.1,186.3,145.6,192.4,145.4,199z"/>
</g>
<g id="Layer_8">
	<path class="st6" d="M240.3,199.6c-0.1,7-3.3,16-8,24.5c-6.8,12.3-16.1,22.6-26.6,31.8c-4.4,3.9-9.1,7.4-13.7,11.2
		c-1,0.8-1.7,0.8-2.7,0c-12.5-9.4-24.1-19.8-33.5-32.4c-6.1-8.3-11-17.2-13.5-27.3c-1.8-7.7-2.1-15.4,0.6-23
		c2.6-7.3,7.3-12.7,14.7-15.5c5.5-2,11-1.9,16.5,0.1c4.5,1.6,8.3,4.2,11.7,7.4c1.1,1,2.3,1.8,3.4,2.7c0.7,0.6,1.8,0.6,2.5,0
		c1.3-0.9,2.5-1.8,3.7-2.9c5.8-5.3,12.4-8.9,20.5-8.7c9.1,0.2,15.7,4.6,20.2,12.3C239.3,185,240.4,190.7,240.3,199.6z M151.9,202.3
		c0.4,2.7,0.6,5.4,1.2,8.1c1.4,6,3.8,11.7,7.5,16.8c2.7,3.8,5.3,7.7,8.4,11.2c6.1,7,13.1,13.1,20.6,18.6c0.8,0.6,1.5,0.7,2.3,0
		c5.1-4.4,10.5-8.5,15.4-13.2c6.7-6.4,12.4-13.5,16.7-21.8c3.4-6.7,5.7-13.7,5.3-21.3c-0.3-6.6-2.3-12.4-7.4-16.8
		c-5-4.3-10.8-5.3-17.1-3.6c-4.1,1.2-7.5,3.5-10.6,6.4c-3.1,2.9-3.7,2.9-6.8,0c-2.3-2.1-4.7-4-7.6-5.3c-7.7-3.5-16.9-2.2-22.5,5
		C153.4,191.1,152,196.4,151.9,202.3z"/>
</g>
<g id="Layer_9">
	<path class="st7" d="M231,203.9c-0.1,5.7-2.7,13-6.5,19.9c-5.5,10-13.1,18.4-21.6,25.8c-3.6,3.1-7.4,6-11.1,9.1
		c-0.8,0.7-1.3,0.6-2.2,0c-10.2-7.7-19.6-16.1-27.2-26.3c-5-6.7-9-14-11-22.2c-1.5-6.3-1.7-12.5,0.5-18.7
		c2.1-5.9,5.9-10.4,11.9-12.6c4.5-1.6,8.9-1.5,13.4,0.1c3.6,1.3,6.7,3.4,9.6,6c0.9,0.8,1.9,1.5,2.8,2.2c0.6,0.5,1.5,0.5,2.1,0
		c1-0.7,2-1.5,3-2.3c4.7-4.3,10.1-7.3,16.7-7.1c7.4,0.2,12.8,3.8,16.4,10C230.2,192,231.1,196.7,231,203.9z M159.1,206.1
		c0.3,2.2,0.5,4.4,1,6.6c1.2,4.9,3.1,9.5,6.1,13.6c2.2,3.1,4.3,6.2,6.8,9.1c5,5.7,10.7,10.6,16.7,15.1c0.7,0.5,1.2,0.6,1.8,0
		c4.2-3.6,8.5-6.9,12.5-10.7c5.4-5.2,10.1-11,13.6-17.7c2.8-5.4,4.6-11.1,4.3-17.3c-0.2-5.3-1.9-10.1-6.1-13.7
		c-4-3.5-8.8-4.3-13.9-2.9c-3.3,0.9-6.1,2.8-8.6,5.2c-2.5,2.3-3,2.3-5.6,0c-1.9-1.7-3.9-3.2-6.2-4.3c-6.2-2.9-13.7-1.8-18.3,4
		C160.4,197,159.3,201.4,159.1,206.1z"/>
</g>
<g id="Layer_10">
	<path class="st8" d="M222.3,207.4c-0.1,4.6-2.2,10.5-5.3,16.2c-4.5,8.1-10.6,14.9-17.6,21c-2.9,2.6-6,4.9-9,7.4
		c-0.7,0.5-1.1,0.5-1.8,0c-8.3-6.2-15.9-13.1-22.1-21.4c-4.1-5.5-7.3-11.4-8.9-18.1c-1.2-5.1-1.4-10.2,0.4-15.2
		c1.7-4.8,4.8-8.4,9.7-10.2c3.6-1.3,7.3-1.2,10.9,0.1c3,1,5.5,2.8,7.8,4.9c0.7,0.7,1.5,1.2,2.3,1.8c0.5,0.4,1.2,0.4,1.7,0
		c0.8-0.6,1.6-1.2,2.4-1.9c3.8-3.5,8.2-5.9,13.6-5.8c6,0.1,10.4,3.1,13.4,8.2C221.7,197.8,222.4,201.6,222.3,207.4z M163.8,209.2
		c0.3,1.8,0.4,3.6,0.8,5.4c0.9,4,2.5,7.8,4.9,11.1c1.8,2.5,3.5,5.1,5.5,7.4c4,4.6,8.7,8.6,13.6,12.3c0.5,0.4,1,0.5,1.5,0
		c3.4-2.9,6.9-5.6,10.2-8.7c4.4-4.2,8.2-8.9,11-14.4c2.3-4.4,3.7-9.1,3.5-14.1c-0.2-4.3-1.5-8.2-4.9-11.1c-3.3-2.8-7.2-3.5-11.3-2.3
		c-2.7,0.8-5,2.3-7,4.2c-2,1.9-2.4,1.9-4.5,0c-1.5-1.4-3.1-2.6-5-3.5c-5.1-2.3-11.2-1.4-14.9,3.3C164.9,201.8,164,205.4,163.8,209.2
		z"/>
</g>
<g id="Layer_11">
	<path class="st9" d="M216.4,210.2c-0.1,3.8-1.8,8.7-4.4,13.3c-3.7,6.7-8.7,12.3-14.5,17.3c-2.4,2.1-5,4-7.4,6.1
		c-0.5,0.5-0.9,0.4-1.5,0c-6.8-5.1-13.1-10.7-18.2-17.6c-3.3-4.5-6-9.4-7.3-14.9c-1-4.2-1.1-8.4,0.3-12.5c1.4-4,3.9-6.9,8-8.4
		c3-1.1,6-1,9,0c2.4,0.9,4.5,2.3,6.4,4c0.6,0.5,1.2,1,1.9,1.5c0.4,0.3,1,0.3,1.4,0c0.7-0.5,1.4-1,2-1.6c3.2-2.9,6.8-4.9,11.2-4.8
		c4.9,0.1,8.5,2.5,11,6.7C215.9,202.3,216.5,205.4,216.4,210.2z M168.3,211.7c0.2,1.5,0.3,3,0.7,4.4c0.8,3.3,2.1,6.4,4.1,9.1
		c1.5,2.1,2.9,4.2,4.6,6.1c3.3,3.8,7.1,7.1,11.2,10.1c0.5,0.3,0.8,0.4,1.2,0c2.8-2.4,5.7-4.6,8.4-7.2c3.6-3.5,6.8-7.3,9.1-11.8
		c1.9-3.6,3.1-7.4,2.9-11.6c-0.1-3.6-1.3-6.8-4-9.1c-2.7-2.3-5.9-2.9-9.3-1.9c-2.2,0.6-4.1,1.9-5.8,3.5c-1.7,1.6-2,1.6-3.7,0
		c-1.3-1.1-2.6-2.2-4.1-2.9c-4.2-1.9-9.2-1.2-12.3,2.7C169.2,205.6,168.4,208.5,168.3,211.7z"/>
</g>
<g id="Layer_12">
	<path class="st10" d="M211.3,212.6c0,3.1-1.4,7.1-3.5,10.8c-3,5.4-7.1,10-11.8,14.1c-2,1.7-4,3.3-6,4.9c-0.4,0.4-0.7,0.3-1.2,0
		c-5.5-4.2-10.6-8.7-14.8-14.3c-2.7-3.7-4.9-7.6-6-12.1c-0.8-3.4-0.9-6.8,0.3-10.2c1.1-3.2,3.2-5.6,6.5-6.8c2.4-0.9,4.9-0.8,7.3,0
		c2,0.7,3.7,1.9,5.2,3.3c0.5,0.4,1,0.8,1.5,1.2c0.3,0.3,0.8,0.3,1.1,0c0.6-0.4,1.1-0.8,1.6-1.3c2.6-2.4,5.5-3.9,9.1-3.9
		c4,0.1,7,2.1,8.9,5.5C210.9,206.1,211.3,208.6,211.3,212.6z M172.2,213.8c0.2,1.2,0.3,2.4,0.5,3.6c0.6,2.7,1.7,5.2,3.3,7.4
		c1.2,1.7,2.4,3.4,3.7,4.9c2.7,3.1,5.8,5.8,9.1,8.2c0.4,0.3,0.6,0.3,1,0c2.3-1.9,4.6-3.8,6.8-5.8c2.9-2.8,5.5-6,7.4-9.6
		c1.5-3,2.5-6.1,2.4-9.4c-0.1-2.9-1-5.5-3.3-7.4c-2.2-1.9-4.8-2.4-7.6-1.6c-1.8,0.5-3.3,1.5-4.7,2.8c-1.4,1.3-1.6,1.3-3,0
		c-1-0.9-2.1-1.8-3.4-2.3c-3.4-1.6-7.5-1-10,2.2C172.9,208.8,172.3,211.2,172.2,213.8z"/>
</g>
<g id="Layer_13">
	<path class="st11" d="M206.5,214.7c0,2.4-1.1,5.5-2.8,8.5c-2.4,4.2-5.5,7.8-9.2,11c-1.5,1.3-3.2,2.6-4.7,3.9
		c-0.3,0.3-0.6,0.3-0.9,0c-4.3-3.3-8.3-6.8-11.6-11.2c-2.1-2.9-3.8-5.9-4.7-9.4c-0.6-2.7-0.7-5.3,0.2-7.9c0.9-2.5,2.5-4.4,5.1-5.3
		c1.9-0.7,3.8-0.6,5.7,0c1.6,0.5,2.9,1.5,4.1,2.6c0.4,0.3,0.8,0.6,1.2,0.9c0.3,0.2,0.6,0.2,0.9,0c0.4-0.3,0.9-0.6,1.3-1
		c2-1.8,4.3-3.1,7.1-3c3.1,0.1,5.4,1.6,7,4.3C206.1,209.7,206.5,211.7,206.5,214.7z M175.9,215.7c0.1,0.9,0.2,1.9,0.4,2.8
		c0.5,2.1,1.3,4.1,2.6,5.8c0.9,1.3,1.8,2.6,2.9,3.9c2.1,2.4,4.5,4.5,7.1,6.4c0.3,0.2,0.5,0.2,0.8,0c1.8-1.5,3.6-2.9,5.3-4.6
		c2.3-2.2,4.3-4.7,5.8-7.5c1.2-2.3,2-4.7,1.8-7.3c-0.1-2.3-0.8-4.3-2.6-5.8c-1.7-1.5-3.7-1.8-5.9-1.2c-1.4,0.4-2.6,1.2-3.7,2.2
		c-1.1,1-1.3,1-2.4,0c-0.8-0.7-1.6-1.4-2.6-1.8c-2.7-1.2-5.8-0.7-7.8,1.7C176.4,211.8,176,213.6,175.9,215.7z"/>
</g>
<g id="Layer_14">
	<path class="st12" d="M203.8,216c0,2-1,4.7-2.3,7.2c-2,3.6-4.7,6.6-7.8,9.3c-1.3,1.1-2.7,2.2-4,3.3c-0.3,0.2-0.5,0.2-0.8,0
		c-3.7-2.8-7-5.8-9.8-9.5c-1.8-2.4-3.2-5-3.9-8c-0.5-2.3-0.6-4.5,0.2-6.7c0.8-2.1,2.1-3.7,4.3-4.5c1.6-0.6,3.2-0.5,4.8,0
		c1.3,0.5,2.4,1.2,3.4,2.2c0.3,0.3,0.7,0.5,1,0.8c0.2,0.2,0.5,0.2,0.7,0c0.4-0.3,0.7-0.5,1.1-0.8c1.7-1.6,3.6-2.6,6-2.6
		c2.6,0.1,4.6,1.4,5.9,3.6C203.5,211.8,203.8,213.4,203.8,216z M177.9,216.8c0.1,0.8,0.2,1.6,0.4,2.4c0.4,1.8,1.1,3.4,2.2,4.9
		c0.8,1.1,1.6,2.2,2.4,3.3c1.8,2.1,3.8,3.8,6,5.4c0.2,0.2,0.4,0.2,0.7,0c1.5-1.3,3.1-2.5,4.5-3.9c1.9-1.9,3.6-3.9,4.9-6.4
		c1-2,1.7-4,1.6-6.2c-0.1-1.9-0.7-3.6-2.2-4.9c-1.5-1.3-3.2-1.6-5-1c-1.2,0.3-2.2,1-3.1,1.9c-0.9,0.8-1.1,0.8-2,0
		c-0.7-0.6-1.4-1.2-2.2-1.5c-2.2-1-4.9-0.6-6.6,1.5C178.4,213.6,178,215.1,177.9,216.8z"/>
</g>
<g id="Layer_15">
	<path class="st13" d="M201.9,217.4c0,1.8-0.8,4.1-2,6.2c-1.7,3.1-4.1,5.8-6.8,8.1c-1.1,1-2.3,1.9-3.5,2.9c-0.3,0.2-0.4,0.2-0.7,0
		c-3.2-2.4-6.1-5-8.5-8.3c-1.6-2.1-2.8-4.4-3.4-7c-0.5-2-0.5-3.9,0.2-5.9c0.7-1.9,1.9-3.2,3.7-4c1.4-0.5,2.8-0.5,4.2,0
		c1.1,0.4,2.1,1.1,3,1.9c0.3,0.3,0.6,0.5,0.9,0.7c0.2,0.2,0.5,0.2,0.6,0c0.3-0.2,0.6-0.5,0.9-0.7c1.5-1.4,3.2-2.3,5.2-2.2
		c2.3,0.1,4,1.2,5.2,3.2C201.6,213.6,201.9,215.1,201.9,217.4z M179.3,218.1c0.1,0.7,0.2,1.4,0.3,2.1c0.4,1.5,1,3,1.9,4.3
		c0.7,1,1.4,2,2.1,2.8c1.6,1.8,3.3,3.3,5.3,4.8c0.2,0.2,0.4,0.2,0.6,0c1.3-1.1,2.7-2.2,3.9-3.4c1.7-1.6,3.2-3.4,4.3-5.6
		c0.9-1.7,1.4-3.5,1.4-5.4c-0.1-1.7-0.6-3.2-1.9-4.3c-1.3-1.1-2.8-1.4-4.4-0.9c-1,0.3-1.9,0.9-2.7,1.6c-0.8,0.7-0.9,0.7-1.7,0
		c-0.6-0.5-1.2-1-1.9-1.4c-2-0.9-4.3-0.5-5.8,1.3C179.7,215.2,179.4,216.6,179.3,218.1z"/>
</g>
<g id="Layer_16">
	<path class="st14" d="M199.9,218.4c0,1.5-0.7,3.4-1.7,5.1c-1.4,2.6-3.4,4.7-5.6,6.7c-0.9,0.8-1.9,1.6-2.9,2.3
		c-0.2,0.2-0.3,0.2-0.6,0c-2.6-2-5.1-4.2-7-6.8c-1.3-1.7-2.3-3.6-2.8-5.7c-0.4-1.6-0.4-3.2,0.1-4.8c0.5-1.5,1.5-2.7,3.1-3.3
		c1.1-0.4,2.3-0.4,3.5,0c0.9,0.3,1.7,0.9,2.5,1.6c0.2,0.2,0.5,0.4,0.7,0.6c0.2,0.1,0.4,0.1,0.5,0c0.3-0.2,0.5-0.4,0.8-0.6
		c1.2-1.1,2.6-1.9,4.3-1.8c1.9,0,3.3,1,4.2,2.6C199.7,215.4,199.9,216.6,199.9,218.4z M181.4,219c0.1,0.6,0.1,1.1,0.3,1.7
		c0.3,1.3,0.8,2.5,1.6,3.5c0.6,0.8,1.1,1.6,1.8,2.3c1.3,1.5,2.8,2.7,4.3,3.9c0.2,0.1,0.3,0.1,0.5,0c1.1-0.9,2.2-1.8,3.2-2.8
		c1.4-1.3,2.6-2.8,3.5-4.6c0.7-1.4,1.2-2.9,1.1-4.5c-0.1-1.4-0.5-2.6-1.6-3.5c-1-0.9-2.3-1.1-3.6-0.7c-0.9,0.2-1.6,0.7-2.2,1.3
		c-0.6,0.6-0.8,0.6-1.4,0c-0.5-0.4-1-0.8-1.6-1.1c-1.6-0.7-3.5-0.5-4.7,1C181.7,216.7,181.4,217.8,181.4,219z"/>
</g>
<g id="Layer_17">
	<path class="st15" d="M198.5,218.6c0,1.3-0.6,2.9-1.5,4.5c-1.3,2.3-3,4.2-4.9,5.8c-0.8,0.7-1.7,1.4-2.5,2.1c-0.2,0.2-0.3,0.1-0.5,0
		c-2.3-1.7-4.4-3.6-6.2-6c-1.1-1.5-2-3.2-2.5-5c-0.3-1.4-0.4-2.8,0.1-4.2c0.5-1.3,1.3-2.3,2.7-2.8c1-0.4,2-0.3,3,0
		c0.8,0.3,1.5,0.8,2.2,1.4c0.2,0.2,0.4,0.3,0.6,0.5c0.1,0.1,0.3,0.1,0.5,0c0.2-0.2,0.5-0.3,0.7-0.5c1.1-1,2.3-1.6,3.8-1.6
		c1.7,0,2.9,0.9,3.7,2.3C198.3,215.9,198.5,217,198.5,218.6z M182.2,219.1c0.1,0.5,0.1,1,0.2,1.5c0.3,1.1,0.7,2.2,1.4,3.1
		c0.5,0.7,1,1.4,1.5,2.1c1.1,1.3,2.4,2.4,3.8,3.4c0.2,0.1,0.3,0.1,0.4,0c0.9-0.8,1.9-1.6,2.8-2.4c1.2-1.2,2.3-2.5,3.1-4
		c0.6-1.2,1-2.5,1-3.9c0-1.2-0.4-2.3-1.4-3.1c-0.9-0.8-2-1-3.1-0.7c-0.7,0.2-1.4,0.6-1.9,1.2c-0.6,0.5-0.7,0.5-1.3,0
		c-0.4-0.4-0.9-0.7-1.4-1c-1.4-0.6-3.1-0.4-4.1,0.9C182.5,217,182.3,218,182.2,219.1z"/>
</g>
<g id="Layer_18">
	<path class="st16" d="M196.9,219.5c0,1.1-0.5,2.4-1.2,3.7c-1,1.9-2.5,3.5-4.1,4.9c-0.7,0.6-1.4,1.1-2.1,1.7c-0.2,0.1-0.3,0.1-0.4,0
		c-1.9-1.4-3.7-3-5.1-4.9c-0.9-1.3-1.7-2.6-2.1-4.2c-0.3-1.2-0.3-2.4,0.1-3.5c0.4-1.1,1.1-1.9,2.2-2.4c0.8-0.3,1.7-0.3,2.5,0
		c0.7,0.2,1.3,0.6,1.8,1.1c0.2,0.2,0.3,0.3,0.5,0.4c0.1,0.1,0.3,0.1,0.4,0c0.2-0.1,0.4-0.3,0.6-0.4c0.9-0.8,1.9-1.4,3.1-1.3
		c1.4,0,2.4,0.7,3.1,1.9C196.8,217.3,197,218.2,196.9,219.5z M183.4,219.9c0.1,0.4,0.1,0.8,0.2,1.2c0.2,0.9,0.6,1.8,1.1,2.6
		c0.4,0.6,0.8,1.2,1.3,1.7c0.9,1.1,2,2,3.1,2.8c0.1,0.1,0.2,0.1,0.3,0c0.8-0.7,1.6-1.3,2.4-2c1-1,1.9-2.1,2.5-3.3
		c0.5-1,0.9-2.1,0.8-3.2c0-1-0.4-1.9-1.1-2.6c-0.8-0.7-1.7-0.8-2.6-0.5c-0.6,0.2-1.1,0.5-1.6,1c-0.5,0.4-0.6,0.4-1,0
		c-0.4-0.3-0.7-0.6-1.2-0.8c-1.2-0.5-2.6-0.3-3.4,0.8C183.7,218.2,183.5,219,183.4,219.9z"/>
</g>
<g id="Layer_19">
	<path class="st17" d="M195.4,220.2c0,0.9-0.4,2-1,3c-0.8,1.5-2,2.8-3.3,3.9c-0.5,0.5-1.1,0.9-1.7,1.4c-0.1,0.1-0.2,0.1-0.3,0
		c-1.5-1.2-3-2.4-4.1-4c-0.8-1-1.4-2.1-1.7-3.4c-0.2-1-0.3-1.9,0.1-2.8c0.3-0.9,0.9-1.6,1.8-1.9c0.7-0.3,1.4-0.2,2,0
		c0.6,0.2,1,0.5,1.5,0.9c0.1,0.1,0.3,0.2,0.4,0.3c0.1,0.1,0.2,0.1,0.3,0c0.2-0.1,0.3-0.2,0.5-0.4c0.7-0.7,1.5-1.1,2.5-1.1
		c1.1,0,1.9,0.6,2.5,1.5C195.2,218.4,195.4,219.1,195.4,220.2z M184.4,220.5c0,0.3,0.1,0.7,0.2,1c0.2,0.7,0.5,1.5,0.9,2.1
		c0.3,0.5,0.7,0.9,1,1.4c0.8,0.9,1.6,1.6,2.6,2.3c0.1,0.1,0.2,0.1,0.3,0c0.6-0.5,1.3-1.1,1.9-1.6c0.8-0.8,1.5-1.7,2.1-2.7
		c0.4-0.8,0.7-1.7,0.7-2.6c0-0.8-0.3-1.5-0.9-2.1c-0.6-0.5-1.3-0.7-2.1-0.4c-0.5,0.1-0.9,0.4-1.3,0.8c-0.4,0.4-0.5,0.4-0.8,0
		c-0.3-0.3-0.6-0.5-0.9-0.7c-1-0.4-2.1-0.3-2.8,0.6C184.6,219.1,184.4,219.8,184.4,220.5z"/>
</g>
<g id="Layer_20">
	<path class="st18" d="M194.8,220.9c0,0.8-0.4,1.8-0.9,2.7c-0.8,1.4-1.8,2.5-3,3.6c-0.5,0.4-1,0.8-1.5,1.2c-0.1,0.1-0.2,0.1-0.3,0
		c-1.4-1.1-2.7-2.2-3.7-3.6c-0.7-0.9-1.2-1.9-1.5-3.1c-0.2-0.9-0.2-1.7,0.1-2.6c0.3-0.8,0.8-1.4,1.6-1.7c0.6-0.2,1.2-0.2,1.8,0
		c0.5,0.2,0.9,0.5,1.3,0.8c0.1,0.1,0.3,0.2,0.4,0.3c0.1,0.1,0.2,0.1,0.3,0c0.1-0.1,0.3-0.2,0.4-0.3c0.6-0.6,1.4-1,2.3-1
		c1,0,1.8,0.5,2.3,1.4C194.7,219.3,194.8,220,194.8,220.9z M184.9,221.2c0,0.3,0.1,0.6,0.1,0.9c0.2,0.7,0.4,1.3,0.8,1.9
		c0.3,0.4,0.6,0.9,0.9,1.2c0.7,0.8,1.5,1.5,2.3,2.1c0.1,0.1,0.2,0.1,0.3,0c0.6-0.5,1.2-1,1.7-1.5c0.7-0.7,1.4-1.5,1.9-2.4
		c0.4-0.7,0.6-1.5,0.6-2.4c0-0.7-0.3-1.4-0.8-1.9c-0.6-0.5-1.2-0.6-1.9-0.4c-0.5,0.1-0.8,0.4-1.2,0.7c-0.3,0.3-0.4,0.3-0.8,0
		c-0.3-0.2-0.5-0.4-0.9-0.6c-0.9-0.4-1.9-0.2-2.5,0.6C185.1,220,184.9,220.6,184.9,221.2z"/>
</g>
<g id="Layer_21">
	<path class="st19" d="M194.3,221.1c0,0.7-0.3,1.5-0.8,2.4c-0.7,1.2-1.7,2.2-2.7,3.1c-0.5,0.4-0.9,0.7-1.4,1.1
		c-0.1,0.1-0.2,0.1-0.3,0c-1.3-0.9-2.5-1.9-3.4-3.1c-0.6-0.8-1.1-1.7-1.4-2.6c-0.2-0.7-0.2-1.5,0.1-2.2c0.3-0.7,0.7-1.2,1.5-1.5
		c0.6-0.2,1.1-0.2,1.7,0c0.5,0.2,0.9,0.4,1.2,0.7c0.1,0.1,0.2,0.2,0.4,0.3c0.1,0.1,0.2,0.1,0.3,0c0.1-0.1,0.3-0.2,0.4-0.3
		c0.6-0.5,1.3-0.9,2.1-0.8c0.9,0,1.6,0.4,2.1,1.2C194.2,219.7,194.3,220.3,194.3,221.1z M185.2,221.4c0,0.3,0.1,0.5,0.1,0.8
		c0.1,0.6,0.4,1.1,0.8,1.6c0.3,0.4,0.6,0.7,0.9,1.1c0.6,0.7,1.4,1.3,2.1,1.8c0.1,0.1,0.1,0.1,0.2,0c0.5-0.4,1.1-0.8,1.6-1.3
		c0.7-0.6,1.3-1.3,1.7-2.1c0.4-0.6,0.6-1.3,0.6-2.1c0-0.6-0.2-1.2-0.8-1.6c-0.5-0.4-1.1-0.5-1.8-0.3c-0.4,0.1-0.8,0.3-1.1,0.6
		c-0.3,0.3-0.4,0.3-0.7,0c-0.2-0.2-0.5-0.4-0.8-0.5c-0.8-0.3-1.7-0.2-2.3,0.5C185.4,220.3,185.2,220.8,185.2,221.4z"/>
</g>
<g id="Layer_22">
	<path class="st20" d="M193.4,221.7c0,0.5-0.3,1.2-0.7,1.9c-0.6,1-1.3,1.8-2.2,2.5c-0.4,0.3-0.8,0.6-1.1,0.9c-0.1,0.1-0.1,0.1-0.2,0
		c-1-0.7-2-1.5-2.8-2.5c-0.5-0.6-0.9-1.3-1.1-2.1c-0.2-0.6-0.2-1.2,0.1-1.8c0.2-0.6,0.6-1,1.2-1.2c0.5-0.2,0.9-0.1,1.4,0
		c0.4,0.1,0.7,0.3,1,0.6c0.1,0.1,0.2,0.1,0.3,0.2c0.1,0,0.2,0,0.2,0c0.1-0.1,0.2-0.1,0.3-0.2c0.5-0.4,1-0.7,1.7-0.7
		c0.8,0,1.3,0.4,1.7,1C193.3,220.5,193.4,221,193.4,221.7z M186,221.9c0,0.2,0,0.4,0.1,0.6c0.1,0.5,0.3,0.9,0.6,1.3
		c0.2,0.3,0.4,0.6,0.7,0.9c0.5,0.5,1.1,1,1.7,1.5c0.1,0,0.1,0.1,0.2,0c0.4-0.3,0.9-0.7,1.3-1c0.6-0.5,1-1.1,1.4-1.7
		c0.3-0.5,0.5-1.1,0.4-1.7c0-0.5-0.2-1-0.6-1.3c-0.4-0.3-0.9-0.4-1.4-0.3c-0.3,0.1-0.6,0.3-0.9,0.5c-0.3,0.2-0.3,0.2-0.6,0
		c-0.2-0.2-0.4-0.3-0.6-0.4c-0.6-0.3-1.4-0.2-1.9,0.4C186.1,221,186,221.4,186,221.9z"/>
</g>
<g id="Layer_23">
	<path class="st21" d="M192.6,222c0,0.5-0.2,1-0.6,1.6c-0.5,0.8-1.1,1.5-1.8,2.1c-0.3,0.3-0.6,0.5-0.9,0.7c-0.1,0.1-0.1,0-0.2,0
		c-0.9-0.6-1.7-1.3-2.3-2.1c-0.4-0.5-0.8-1.1-0.9-1.8c-0.1-0.5-0.1-1,0-1.5c0.2-0.5,0.5-0.8,1-1c0.4-0.1,0.8-0.1,1.1,0
		c0.3,0.1,0.6,0.3,0.8,0.5c0.1,0.1,0.2,0.1,0.2,0.2c0.1,0,0.1,0,0.2,0c0.1-0.1,0.2-0.1,0.3-0.2c0.4-0.3,0.9-0.6,1.4-0.6
		c0.6,0,1.1,0.3,1.4,0.8C192.5,221,192.6,221.4,192.6,222z M186.5,222.2c0,0.2,0,0.4,0.1,0.5c0.1,0.4,0.3,0.8,0.5,1.1
		c0.2,0.2,0.4,0.5,0.6,0.7c0.4,0.5,0.9,0.8,1.4,1.2c0.1,0,0.1,0,0.2,0c0.4-0.3,0.7-0.6,1.1-0.9c0.5-0.4,0.9-0.9,1.2-1.4
		c0.2-0.4,0.4-0.9,0.4-1.4c0-0.4-0.2-0.8-0.5-1.1c-0.3-0.3-0.7-0.3-1.2-0.2c-0.3,0.1-0.5,0.2-0.7,0.4c-0.2,0.2-0.3,0.2-0.5,0
		c-0.2-0.1-0.3-0.3-0.5-0.3c-0.5-0.2-1.2-0.1-1.6,0.3C186.6,221.4,186.5,221.8,186.5,222.2z"/>
</g>
<g id="Layer_24">
	<path class="st22" d="M192.1,222.3c0,0.4-0.2,0.9-0.5,1.4c-0.4,0.7-1,1.3-1.6,1.8c-0.3,0.2-0.5,0.4-0.8,0.6c-0.1,0-0.1,0-0.2,0
		c-0.7-0.5-1.4-1.1-2-1.8c-0.4-0.5-0.7-1-0.8-1.5c-0.1-0.4-0.1-0.9,0-1.3c0.2-0.4,0.4-0.7,0.9-0.9c0.3-0.1,0.7-0.1,1,0
		c0.3,0.1,0.5,0.2,0.7,0.4c0.1,0.1,0.1,0.1,0.2,0.2c0,0,0.1,0,0.2,0c0.1,0,0.1-0.1,0.2-0.2c0.3-0.3,0.7-0.5,1.2-0.5
		c0.5,0,0.9,0.3,1.2,0.7C192.1,221.5,192.1,221.8,192.1,222.3z M186.8,222.4c0,0.2,0,0.3,0.1,0.5c0.1,0.3,0.2,0.7,0.4,0.9
		c0.2,0.2,0.3,0.4,0.5,0.6c0.4,0.4,0.8,0.7,1.2,1c0,0,0.1,0,0.1,0c0.3-0.2,0.6-0.5,0.9-0.7c0.4-0.4,0.7-0.8,1-1.2
		c0.2-0.4,0.3-0.8,0.3-1.2c0-0.4-0.1-0.7-0.4-0.9c-0.3-0.2-0.6-0.3-1-0.2c-0.2,0.1-0.4,0.2-0.6,0.4c-0.2,0.2-0.2,0.2-0.4,0
		c-0.1-0.1-0.3-0.2-0.5-0.3c-0.5-0.2-1-0.1-1.3,0.3C186.9,221.8,186.9,222.1,186.8,222.4z"/>
</g>
<g id="Layer_25">
	<path class="st23" d="M191.8,222.6c0,0.3-0.2,0.8-0.4,1.2c-0.4,0.6-0.8,1.1-1.4,1.6c-0.2,0.2-0.5,0.4-0.7,0.5c-0.1,0-0.1,0-0.1,0
		c-0.7-0.5-1.3-1-1.8-1.6c-0.3-0.4-0.6-0.8-0.7-1.3c-0.1-0.4-0.1-0.8,0-1.1c0.1-0.4,0.4-0.6,0.8-0.8c0.3-0.1,0.6-0.1,0.9,0
		c0.2,0.1,0.4,0.2,0.6,0.4c0.1,0,0.1,0.1,0.2,0.1c0,0,0.1,0,0.1,0c0.1,0,0.1-0.1,0.2-0.1c0.3-0.3,0.7-0.4,1.1-0.4
		c0.5,0,0.8,0.2,1.1,0.6C191.7,221.9,191.8,222.2,191.8,222.6z M187.1,222.7c0,0.1,0,0.3,0.1,0.4c0.1,0.3,0.2,0.6,0.4,0.8
		c0.1,0.2,0.3,0.4,0.4,0.5c0.3,0.3,0.7,0.6,1.1,0.9c0,0,0.1,0,0.1,0c0.3-0.2,0.5-0.4,0.8-0.6c0.3-0.3,0.7-0.7,0.9-1.1
		c0.2-0.3,0.3-0.7,0.3-1c0-0.3-0.1-0.6-0.4-0.8c-0.3-0.2-0.6-0.3-0.9-0.2c-0.2,0.1-0.4,0.2-0.6,0.3c-0.2,0.1-0.2,0.1-0.4,0
		c-0.1-0.1-0.2-0.2-0.4-0.3c-0.4-0.2-0.9-0.1-1.2,0.2C187.2,222.2,187.1,222.5,187.1,222.7z"/>
</g>
<g id="Layer_26">
	<path class="st24" d="M191.3,222.8c0,0.3-0.1,0.6-0.3,1c-0.3,0.5-0.7,0.9-1.1,1.3c-0.2,0.2-0.4,0.3-0.6,0.4c0,0-0.1,0-0.1,0
		c-0.5-0.4-1-0.8-1.4-1.3c-0.3-0.3-0.5-0.7-0.6-1.1c-0.1-0.3-0.1-0.6,0-0.9c0.1-0.3,0.3-0.5,0.6-0.6c0.2-0.1,0.5-0.1,0.7,0
		c0.2,0.1,0.4,0.2,0.5,0.3c0,0,0.1,0.1,0.1,0.1c0,0,0.1,0,0.1,0c0.1,0,0.1-0.1,0.2-0.1c0.2-0.2,0.5-0.4,0.9-0.4
		c0.4,0,0.7,0.2,0.9,0.5C191.2,222.2,191.3,222.4,191.3,222.8z M187.5,222.9c0,0.1,0,0.2,0.1,0.3c0.1,0.2,0.2,0.5,0.3,0.7
		c0.1,0.2,0.2,0.3,0.4,0.4c0.3,0.3,0.6,0.5,0.9,0.7c0,0,0.1,0,0.1,0c0.2-0.2,0.4-0.3,0.7-0.5c0.3-0.3,0.5-0.5,0.7-0.9
		c0.1-0.3,0.2-0.5,0.2-0.9c0-0.3-0.1-0.5-0.3-0.7c-0.2-0.2-0.5-0.2-0.7-0.1c-0.2,0-0.3,0.1-0.5,0.3c-0.1,0.1-0.2,0.1-0.3,0
		c-0.1-0.1-0.2-0.2-0.3-0.2c-0.3-0.1-0.7-0.1-1,0.2C187.6,222.4,187.5,222.7,187.5,222.9z"/>
</g>
<g id="Layer_27">
	<path class="st25" d="M191,223c0,0.2-0.1,0.6-0.3,0.8c-0.3,0.4-0.6,0.8-1,1.1c-0.2,0.1-0.3,0.3-0.5,0.4c0,0-0.1,0-0.1,0
		c-0.5-0.3-0.9-0.7-1.2-1.1c-0.2-0.3-0.4-0.6-0.5-0.9c-0.1-0.3-0.1-0.5,0-0.8c0.1-0.3,0.3-0.4,0.5-0.5c0.2-0.1,0.4-0.1,0.6,0
		c0.2,0.1,0.3,0.1,0.4,0.3c0,0,0.1,0.1,0.1,0.1c0,0,0.1,0,0.1,0c0,0,0.1-0.1,0.1-0.1c0.2-0.2,0.5-0.3,0.8-0.3c0.3,0,0.6,0.2,0.7,0.4
		C191,222.5,191,222.7,191,223z M187.7,223.1c0,0.1,0,0.2,0,0.3c0.1,0.2,0.1,0.4,0.3,0.6c0.1,0.1,0.2,0.3,0.3,0.4
		c0.2,0.2,0.5,0.5,0.8,0.6c0,0,0.1,0,0.1,0c0.2-0.2,0.4-0.3,0.6-0.5c0.2-0.2,0.5-0.5,0.6-0.8c0.1-0.2,0.2-0.5,0.2-0.7
		c0-0.2-0.1-0.4-0.3-0.6c-0.2-0.1-0.4-0.2-0.6-0.1c-0.1,0-0.3,0.1-0.4,0.2c-0.1,0.1-0.1,0.1-0.3,0c-0.1-0.1-0.2-0.1-0.3-0.2
		c-0.3-0.1-0.6-0.1-0.8,0.2C187.8,222.7,187.7,222.9,187.7,223.1z"/>
</g>
<g id="Layer_28">
	<path class="st26" d="M190.6,223.2c0,0.2-0.1,0.4-0.2,0.7c-0.2,0.3-0.5,0.6-0.8,0.9c-0.1,0.1-0.3,0.2-0.4,0.3c0,0,0,0-0.1,0
		c-0.4-0.3-0.7-0.6-1-0.9c-0.2-0.2-0.3-0.5-0.4-0.8c-0.1-0.2-0.1-0.4,0-0.6c0.1-0.2,0.2-0.4,0.4-0.4c0.2-0.1,0.3-0.1,0.5,0
		c0.1,0,0.2,0.1,0.3,0.2c0,0,0.1,0.1,0.1,0.1c0,0,0.1,0,0.1,0c0,0,0.1-0.1,0.1-0.1c0.2-0.1,0.4-0.2,0.6-0.2c0.3,0,0.5,0.1,0.6,0.3
		C190.6,222.8,190.6,222.9,190.6,223.2z M188,223.2c0,0.1,0,0.2,0,0.2c0,0.2,0.1,0.3,0.2,0.5c0.1,0.1,0.2,0.2,0.2,0.3
		c0.2,0.2,0.4,0.4,0.6,0.5c0,0,0,0,0.1,0c0.2-0.1,0.3-0.2,0.5-0.4c0.2-0.2,0.4-0.4,0.5-0.6c0.1-0.2,0.2-0.4,0.2-0.6
		c0-0.2-0.1-0.3-0.2-0.5c-0.1-0.1-0.3-0.1-0.5-0.1c-0.1,0-0.2,0.1-0.3,0.2c-0.1,0.1-0.1,0.1-0.2,0c-0.1-0.1-0.1-0.1-0.2-0.1
		c-0.2-0.1-0.5-0.1-0.7,0.1C188,222.9,188,223.1,188,223.2z"/>
</g>
<g id="Layer_29">
	<path class="st27" d="M190.4,223.3c0,0.2-0.1,0.4-0.2,0.6c-0.2,0.3-0.4,0.5-0.7,0.7c-0.1,0.1-0.2,0.2-0.3,0.3c0,0,0,0-0.1,0
		c-0.3-0.2-0.6-0.5-0.8-0.8c-0.2-0.2-0.3-0.4-0.3-0.6c0-0.2-0.1-0.4,0-0.5c0.1-0.2,0.2-0.3,0.4-0.4c0.1,0,0.3,0,0.4,0
		c0.1,0,0.2,0.1,0.3,0.2c0,0,0.1,0,0.1,0.1c0,0,0,0,0.1,0c0,0,0.1,0,0.1-0.1c0.1-0.1,0.3-0.2,0.5-0.2c0.2,0,0.4,0.1,0.5,0.3
		C190.3,222.9,190.4,223.1,190.4,223.3z M188.2,223.3c0,0.1,0,0.1,0,0.2c0,0.1,0.1,0.3,0.2,0.4c0.1,0.1,0.1,0.2,0.2,0.3
		c0.2,0.2,0.3,0.3,0.5,0.4c0,0,0,0,0.1,0c0.1-0.1,0.3-0.2,0.4-0.3c0.2-0.1,0.3-0.3,0.4-0.5c0.1-0.2,0.1-0.3,0.1-0.5
		c0-0.2-0.1-0.3-0.2-0.4c-0.1-0.1-0.3-0.1-0.4-0.1c-0.1,0-0.2,0.1-0.3,0.1c-0.1,0.1-0.1,0.1-0.2,0c-0.1,0-0.1-0.1-0.2-0.1
		c-0.2-0.1-0.4,0-0.6,0.1C188.2,223.1,188.2,223.2,188.2,223.3z"/>
</g>
<g id="Layer_30">
	<path class="st28" d="M190.2,223.4c0,0.1-0.1,0.3-0.2,0.5c-0.1,0.3-0.4,0.5-0.6,0.7c-0.1,0.1-0.2,0.2-0.3,0.2c0,0,0,0-0.1,0
		c-0.3-0.2-0.5-0.4-0.7-0.7c-0.1-0.2-0.2-0.4-0.3-0.6c0-0.2,0-0.3,0-0.5c0.1-0.1,0.2-0.3,0.3-0.3c0.1,0,0.2,0,0.4,0
		c0.1,0,0.2,0.1,0.3,0.2c0,0,0,0,0.1,0.1c0,0,0,0,0.1,0c0,0,0.1,0,0.1-0.1c0.1-0.1,0.3-0.2,0.4-0.2c0.2,0,0.3,0.1,0.4,0.3
		C190.2,223.1,190.2,223.2,190.2,223.4z M188.3,223.4c0,0.1,0,0.1,0,0.2c0,0.1,0.1,0.2,0.2,0.3c0.1,0.1,0.1,0.2,0.2,0.2
		c0.1,0.1,0.3,0.3,0.5,0.4c0,0,0,0,0,0c0.1-0.1,0.2-0.2,0.3-0.3c0.1-0.1,0.3-0.3,0.4-0.4c0.1-0.1,0.1-0.3,0.1-0.4
		c0-0.1-0.1-0.3-0.2-0.3c-0.1-0.1-0.2-0.1-0.4-0.1c-0.1,0-0.2,0.1-0.2,0.1c-0.1,0.1-0.1,0.1-0.1,0c-0.1,0-0.1-0.1-0.2-0.1
		c-0.2-0.1-0.4,0-0.5,0.1C188.3,223.2,188.3,223.3,188.3,223.4z"/>
</g>
<g id="Layer_31">
	<path class="st29" d="M190,223.4c0,0.1-0.1,0.3-0.1,0.4c-0.1,0.2-0.3,0.4-0.5,0.5c-0.1,0.1-0.2,0.1-0.2,0.2c0,0,0,0,0,0
		c-0.2-0.2-0.4-0.3-0.6-0.5c-0.1-0.1-0.2-0.3-0.2-0.5c0-0.1,0-0.3,0-0.4c0-0.1,0.1-0.2,0.3-0.3c0.1,0,0.2,0,0.3,0
		c0.1,0,0.1,0.1,0.2,0.1c0,0,0,0,0.1,0c0,0,0,0,0,0c0,0,0,0,0.1,0c0.1-0.1,0.2-0.1,0.4-0.1c0.2,0,0.3,0.1,0.4,0.2
		C190,223.2,190,223.3,190,223.4z M188.5,223.5c0,0,0,0.1,0,0.1c0,0.1,0.1,0.2,0.1,0.3c0,0.1,0.1,0.1,0.1,0.2
		c0.1,0.1,0.2,0.2,0.4,0.3c0,0,0,0,0,0c0.1-0.1,0.2-0.1,0.3-0.2c0.1-0.1,0.2-0.2,0.3-0.4c0.1-0.1,0.1-0.2,0.1-0.4
		c0-0.1,0-0.2-0.1-0.3c-0.1-0.1-0.2-0.1-0.3-0.1c-0.1,0-0.1,0.1-0.2,0.1c-0.1,0-0.1,0-0.1,0c0,0-0.1-0.1-0.1-0.1
		c-0.1-0.1-0.3,0-0.4,0.1C188.5,223.3,188.5,223.4,188.5,223.5z"/>
</g>
<g id="Layer_32">
	<path class="st30" d="M189.9,223.5c0,0.1,0,0.2-0.1,0.3c-0.1,0.2-0.2,0.3-0.4,0.4c-0.1,0.1-0.1,0.1-0.2,0.2c0,0,0,0,0,0
		c-0.2-0.1-0.4-0.3-0.5-0.5c-0.1-0.1-0.2-0.2-0.2-0.4c0-0.1,0-0.2,0-0.3c0-0.1,0.1-0.2,0.2-0.2c0.1,0,0.2,0,0.2,0
		c0.1,0,0.1,0.1,0.2,0.1c0,0,0,0,0.1,0c0,0,0,0,0,0c0,0,0,0,0.1,0c0.1-0.1,0.2-0.1,0.3-0.1c0.1,0,0.2,0.1,0.3,0.2
		C189.9,223.3,189.9,223.4,189.9,223.5z M188.6,223.6c0,0,0,0.1,0,0.1c0,0.1,0.1,0.2,0.1,0.2c0,0.1,0.1,0.1,0.1,0.2
		c0.1,0.1,0.2,0.2,0.3,0.3c0,0,0,0,0,0c0.1-0.1,0.2-0.1,0.2-0.2c0.1-0.1,0.2-0.2,0.2-0.3c0.1-0.1,0.1-0.2,0.1-0.3
		c0-0.1,0-0.2-0.1-0.2c-0.1-0.1-0.2-0.1-0.3,0c-0.1,0-0.1,0-0.2,0.1c0,0-0.1,0-0.1,0c0,0-0.1-0.1-0.1-0.1c-0.1,0-0.3,0-0.3,0.1
		C188.6,223.4,188.6,223.5,188.6,223.6z"/>
</g>
<g id="Layer_33">
	<path class="st31" d="M189.7,223.6c0,0.1,0,0.2-0.1,0.3c-0.1,0.1-0.2,0.3-0.3,0.4c-0.1,0-0.1,0.1-0.2,0.1c0,0,0,0,0,0
		c-0.1-0.1-0.3-0.2-0.4-0.4c-0.1-0.1-0.1-0.2-0.2-0.3c0-0.1,0-0.2,0-0.3c0-0.1,0.1-0.1,0.2-0.2c0.1,0,0.1,0,0.2,0
		c0.1,0,0.1,0,0.1,0.1c0,0,0,0,0,0c0,0,0,0,0,0c0,0,0,0,0,0c0.1-0.1,0.1-0.1,0.2-0.1c0.1,0,0.2,0.1,0.2,0.1
		C189.7,223.4,189.7,223.5,189.7,223.6z M188.7,223.6C188.7,223.7,188.7,223.7,188.7,223.6c0,0.2,0.1,0.2,0.1,0.3
		c0,0,0.1,0.1,0.1,0.1c0.1,0.1,0.2,0.1,0.2,0.2c0,0,0,0,0,0c0.1,0,0.1-0.1,0.2-0.1c0.1-0.1,0.1-0.1,0.2-0.2c0-0.1,0.1-0.2,0.1-0.2
		c0-0.1,0-0.1-0.1-0.2c-0.1,0-0.1-0.1-0.2,0c0,0-0.1,0-0.1,0.1c0,0,0,0-0.1,0c0,0-0.1,0-0.1-0.1c-0.1,0-0.2,0-0.3,0.1
		C188.7,223.5,188.7,223.6,188.7,223.6z"/>
</g>
<g id="Layer_34">
	<path class="st32" d="M189.6,223.6c0,0.1,0,0.2-0.1,0.2c-0.1,0.1-0.2,0.2-0.3,0.3c0,0-0.1,0.1-0.1,0.1c0,0,0,0,0,0
		c-0.1-0.1-0.2-0.2-0.3-0.3c-0.1-0.1-0.1-0.2-0.1-0.3c0-0.1,0-0.1,0-0.2c0-0.1,0.1-0.1,0.2-0.2c0.1,0,0.1,0,0.2,0c0,0,0.1,0,0.1,0.1
		c0,0,0,0,0,0c0,0,0,0,0,0c0,0,0,0,0,0c0.1-0.1,0.1-0.1,0.2-0.1c0.1,0,0.2,0,0.2,0.1C189.6,223.5,189.6,223.5,189.6,223.6z
		 M188.7,223.7C188.7,223.7,188.7,223.7,188.7,223.7c0,0.1,0.1,0.2,0.1,0.2c0,0,0.1,0.1,0.1,0.1c0.1,0.1,0.1,0.1,0.2,0.2
		c0,0,0,0,0,0c0.1,0,0.1-0.1,0.2-0.1c0.1-0.1,0.1-0.1,0.2-0.2c0-0.1,0.1-0.1,0.1-0.2c0-0.1,0-0.1-0.1-0.2c-0.1,0-0.1-0.1-0.2,0
		c0,0-0.1,0-0.1,0.1c0,0,0,0-0.1,0c0,0,0,0-0.1-0.1c-0.1,0-0.2,0-0.2,0C188.7,223.5,188.7,223.6,188.7,223.7z"/>
</g>
<g id="Layer_35">
	<path class="st33" d="M189.5,223.7c0,0.1,0,0.1-0.1,0.2c-0.1,0.1-0.1,0.2-0.2,0.2c0,0-0.1,0.1-0.1,0.1c0,0,0,0,0,0
		c-0.1-0.1-0.2-0.2-0.3-0.2c-0.1-0.1-0.1-0.1-0.1-0.2c0-0.1,0-0.1,0-0.2c0-0.1,0.1-0.1,0.1-0.1c0,0,0.1,0,0.1,0c0,0,0.1,0,0.1,0.1
		c0,0,0,0,0,0c0,0,0,0,0,0c0,0,0,0,0,0c0,0,0.1-0.1,0.2-0.1c0.1,0,0.1,0,0.2,0.1C189.5,223.6,189.5,223.6,189.5,223.7z M189,223.5"
		/>
</g>
</svg>
